HIERARCHY
ROOT Hips
{
	OFFSET 0.00000 0.00000 0.00000
	CHANNELS 6 Xposition Yposition Zposition Zrotation Yrotation Xrotation 
	JOINT LHipJoint
	{
		OFFSET 0 0 0
		CHANNELS 3 Zrotation Yrotation Xrotation
		JOINT LeftUpLeg
		{
			OFFSET 1.23340 -1.80723 0.69510
			CHANNELS 3 Zrotation Yrotation Xrotation
			JOINT LeftLeg
			{
				OFFSET 2.50056 -6.87023 0.00000
				CHANNELS 3 Zrotation Yrotation Xrotation
				JOINT LeftFoot
				{
					OFFSET 2.85931 -7.85591 0.00000
					CHANNELS 3 Zrotation Yrotation Xrotation
					JOINT LeftToeBase
					{
						OFFSET 0.21001 -0.57700 2.07823
						CHANNELS 3 Zrotation Yrotation Xrotation
						End Site
						{
							OFFSET 0.00000 -0.00000 1.08338
						}
					}
				}
			}
		}
	}
	JOINT RHipJoint
	{
		OFFSET 0 0 0
		CHANNELS 3 Zrotation Yrotation Xrotation
		JOINT RightUpLeg
		{
			OFFSET -1.40842 -1.80723 0.69510
			CHANNELS 3 Zrotation Yrotation Xrotation
			JOINT RightLeg
			{
				OFFSET -2.54876 -7.00266 0.00000
				CHANNELS 3 Zrotation Yrotation Xrotation
				JOINT RightFoot
				{
					OFFSET -2.74835 -7.55104 0.00000
					CHANNELS 3 Zrotation Yrotation Xrotation
					JOINT RightToeBase
					{
						OFFSET -0.22633 -0.62184 2.00890
						CHANNELS 3 Zrotation Yrotation Xrotation
						End Site
						{
							OFFSET -0.00000 -0.00000 1.05493
						}
					}
				}
			}
		}
	}
	JOINT LowerBack
	{
		OFFSET 0 0 0
		CHANNELS 3 Zrotation Yrotation Xrotation
		JOINT Spine
		{
			OFFSET -0.02340 2.02740 -0.12728
			CHANNELS 3 Zrotation Yrotation Xrotation
			JOINT Spine1
			{
				OFFSET -0.00862 2.03614 -0.01188
				CHANNELS 3 Zrotation Yrotation Xrotation
				JOINT Neck
				{
					OFFSET 0 0 0
					CHANNELS 3 Zrotation Yrotation Xrotation
					JOINT Neck1
					{
						OFFSET 0.03380 1.76650 0.27670
						CHANNELS 3 Zrotation Yrotation Xrotation
						JOINT Head
						{
							OFFSET -0.01114 1.80516 -0.21451
							CHANNELS 3 Zrotation Yrotation Xrotation
							End Site
							{
								OFFSET -0.00766 1.81942 -0.10287
							}
						}
					}
				}
				JOINT LeftShoulder
				{
					OFFSET 0 0 0
					CHANNELS 3 Zrotation Yrotation Xrotation
					JOINT LeftArm
					{
						OFFSET 3.22358 1.39475 0.18630
						CHANNELS 3 Zrotation Yrotation Xrotation
						JOINT LeftForeArm
						{
							OFFSET 5.45077 -0.00000 0.00000
							CHANNELS 3 Zrotation Yrotation Xrotation
							JOINT LeftHand
							{
								OFFSET 3.05488 -0.00000 0.00000
								CHANNELS 3 Zrotation Yrotation Xrotation
								JOINT LeftFingerBase
								{
									OFFSET 0 0 0
									CHANNELS 3 Zrotation Yrotation Xrotation
									JOINT LeftHandIndex1
									{
										OFFSET 0.63882 -0.00000 0.00000
										CHANNELS 3 Zrotation Yrotation Xrotation
										End Site
										{
											OFFSET 0.51503 -0.00000 0.00000
										}
									}
								}
								JOINT LThumb
								{
									OFFSET 0 0 0
									CHANNELS 3 Zrotation Yrotation Xrotation
									End Site
									{
										OFFSET 0.52290 -0.00000 0.52290
									}
								}
							}
						}
					}
				}
				JOINT RightShoulder
				{
					OFFSET 0 0 0
					CHANNELS 3 Zrotation Yrotation Xrotation
					JOINT RightArm
					{
						OFFSET -3.57143 1.14055 0.30691
						CHANNELS 3 Zrotation Yrotation Xrotation
						JOINT RightForeArm
						{
							OFFSET -4.88702 -0.00000 -0.00000
							CHANNELS 3 Zrotation Yrotation Xrotation
							JOINT RightHand
							{
								OFFSET -3.22603 -0.00000 0.00000
								CHANNELS 3 Zrotation Yrotation Xrotation
								JOINT RightFingerBase
								{
									OFFSET 0 0 0
									CHANNELS 3 Zrotation Yrotation Xrotation
									JOINT RightHandIndex1
									{
										OFFSET -0.71629 -0.00000 0.00000
										CHANNELS 3 Zrotation Yrotation Xrotation
										End Site
										{
											OFFSET -0.57749 -0.00000 0.00000
										}
									}
								}
								JOINT RThumb
								{
									OFFSET 0 0 0
									CHANNELS 3 Zrotation Yrotation Xrotation
									End Site
									{
										OFFSET -0.58631 -0.00000 0.58631
									}
								}
							}
						}
					}
				}
			}
		}
	}
}
MOTION
Frames: 10
Frame Time: .0083333
-1.2592 16.9253 0.6541 122.1860 86.0927 190.5300 0.0000 0.0000 0.0000 -29.2541 -12.4262 -101.9470 3.3905 11.3019 33.3050 -1.3431 -20.3021 11.5620 0.0116 0.6950 1.9101 0.0000 0.0000 0.0000 6.0738 10.4047 -99.2784 -3.3806 -11.2871 33.2543 0.4006 11.2957 2.1288 -0.0173 -0.8481 2.3311 -1.2935 -2.1793 34.4593 -0.9608 -1.3938 15.2166 0.0962 -0.1733 -0.7763 2.4032 0.1218 -19.7342 -1.9202 0.0027 -3.9813 -1.0490 0.0516 2.0989 -0.0000 -0.0000 0.0000 55.3805 -62.9223 -124.7505 17.2858 -27.2330 -4.2173 -0.0000 -0.0000 147.5440 42.8715 -26.3839 -22.4179 -7.1250 0.0000 -0.0000 7.4963 -3.8531 -8.0504 -0.0000 -0.0000 0.0000 -78.3723 59.7512 -168.9254 -15.4425 24.7590 -3.4091 0.0000 -0.0000 -172.6300 -34.5103 -8.9251 6.0886 7.1250 -0.0000 -0.0000 -6.7232 -40.6794 -0.7200
-1.2737 16.9477 0.6574 121.8790 86.1068 189.7880 0.0000 0.0000 0.0000 -29.1474 -12.2624 -101.4273 3.3552 11.2489 33.1241 -1.3201 -20.1220 11.3607 0.0069 0.5346 1.4691 0.0000 0.0000 0.0000 5.8055 10.4558 -98.6633 -3.3431 -11.2308 33.0621 0.3778 11.0070 1.8836 -0.0156 -0.8052 2.2131 -1.3823 -2.1607 34.2782 -1.0163 -1.4162 15.1118 0.0910 -0.1865 -0.8254 2.6824 0.2040 -20.0522 -2.0934 0.0460 -3.5324 -1.1584 0.0590 2.3157 0.0000 0.0000 0.0000 54.3577 -63.1277 -123.3747 17.3133 -27.2690 -4.2299 -0.0000 -0.0000 147.0910 43.5286 -25.9799 -22.5929 -7.1250 0.0000 -0.0000 7.9679 -3.6344 -8.5378 0.0000 0.0000 0.0000 -78.1149 60.3180 -168.7178 -15.4196 24.7273 -3.3995 0.0000 -0.0000 -172.8160 -34.6398 -9.0957 6.2329 7.1250 -0.0000 -0.0000 -6.8434 -40.8965 -0.6962
-1.2874 16.9657 0.6586 122.0550 86.0400 189.5670 0.0000 0.0000 0.0000 -29.0421 -12.1864 -100.9136 3.3211 11.1975 32.9489 -1.2839 -19.8602 11.2102 0.0038 0.3992 1.0968 0.0000 0.0000 0.0000 5.6798 10.4099 -98.1143 -3.3056 -11.1741 32.8694 0.3658 10.8782 1.6274 -0.0073 -0.5510 1.5140 -1.3447 -2.1747 34.0599 -1.0230 -1.4438 14.9840 0.0716 -0.1998 -0.8891 2.5037 0.1722 -20.3728 -1.9605 0.0310 -3.1045 -1.0886 0.0541 2.5215 0.0000 0.0000 0.0000 53.3877 -63.4810 -122.1744 17.3122 -27.2675 -4.2294 -0.0000 -0.0000 146.7580 43.7800 -25.4560 -22.3865 -7.1250 0.0000 -0.0000 8.2406 -3.1119 -8.7650 0.0000 0.0000 0.0000 -77.7121 60.8833 -168.1857 -15.4203 24.7283 -3.3998 0.0000 -0.0000 -172.8380 -34.7101 -9.2409 6.3473 7.1250 -0.0000 -0.0000 -6.9104 -41.0775 -0.6721
-1.2987 16.9820 0.6579 121.3710 86.0284 188.4680 0.0000 0.0000 0.0000 -29.0012 -12.0762 -100.3791 3.2881 11.1474 32.7785 -1.2456 -19.5688 10.9837 0.0005 0.1390 0.3818 0.0000 0.0000 0.0000 5.5446 10.3798 -97.5551 -3.2697 -11.1194 32.6837 0.3520 10.6969 1.4849 -0.0037 -0.3934 1.0810 -1.3363 -2.1608 33.8889 -1.0294 -1.4501 14.8362 0.0617 -0.2049 -0.9898 2.0069 0.0817 -20.5524 -1.5885 0.0083 -2.8542 -0.8796 0.0602 2.6378 0.0000 0.0000 0.0000 52.4285 -63.9039 -121.0677 17.3530 -27.3207 -4.2481 -0.0000 -0.0000 146.6000 43.6391 -25.2816 -22.1584 -7.1250 0.0000 -0.0000 8.2037 -2.8486 -8.6891 0.0000 0.0000 0.0000 -77.2759 61.4379 -167.3860 -15.4342 24.7475 -3.4057 0.0000 -0.0000 -172.9010 -34.6587 -9.1500 6.2740 7.1250 -0.0000 -0.0000 -6.8618 -40.9634 -0.6867
-1.3100 17.0006 0.6610 121.3410 86.0724 187.9680 0.0000 0.0000 0.0000 -28.8167 -11.8826 -99.8265 3.2578 11.1011 32.6215 -1.2067 -19.2483 10.6131 0.0009 -0.1968 -0.5407 0.0000 0.0000 0.0000 5.3774 10.4532 -96.9263 -3.2415 -11.0761 32.5371 0.3314 10.4125 1.3120 -0.0028 -0.3421 0.9399 -1.3962 -2.1066 33.7833 -1.0115 -1.4258 14.6844 0.1046 -0.1997 -1.1147 1.8301 0.0475 -20.6256 -1.5417 0.0007 -2.7171 -0.8340 0.0584 2.6987 -0.0000 0.0000 0.0000 51.2527 -64.2816 -119.6070 17.4180 -27.4055 -4.2780 -0.0000 -0.0000 146.2760 43.6783 -25.1350 -22.0772 -7.1250 0.0000 -0.0000 8.2620 -2.6891 -8.7302 -0.0000 0.0000 0.0000 -76.8583 62.0229 -166.3175 -15.4455 24.7631 -3.4104 0.0000 -0.0000 -173.0900 -34.4678 -8.9895 6.1222 7.1250 -0.0000 -0.0000 -6.6868 -40.7519 -0.7040
-1.3240 17.0230 0.6658 123.4120 86.0543 189.5610 0.0000 0.0000 0.0000 -28.5288 -11.6980 -99.3194 3.2372 11.0695 32.5145 -1.1922 -19.1060 10.3097 0.0077 -0.5677 -1.5599 0.0000 0.0000 0.0000 5.4835 10.4875 -96.2977 -3.2105 -11.0282 32.3751 0.3174 10.2005 1.2536 -0.0042 -0.4189 1.1511 -1.3269 -2.0896 33.5779 -0.9767 -1.4041 14.5689 0.0967 -0.1907 -1.1686 1.9369 0.0806 -20.5217 -1.6950 0.0305 -2.8316 -0.9006 0.0680 2.6410 -0.0000 -0.0000 0.0000 50.0821 -64.6350 -118.1727 17.4798 -27.4860 -4.3065 -0.0000 -0.0000 146.0250 44.0134 -25.2076 -22.3661 -7.1250 0.0000 -0.0000 8.4346 -2.9075 -8.9472 -0.0000 -0.0000 0.0000 -76.3883 62.6186 -165.2543 -15.4604 24.7836 -3.4166 0.0000 -0.0000 -173.3240 -34.2892 -8.9363 6.0463 7.1250 -0.0000 -0.0000 -6.5259 -40.6703 -0.7001
-1.3402 17.0408 0.6647 125.0390 85.8497 190.8100 0.0000 0.0000 0.0000 -28.3915 -11.7275 -98.8490 3.2188 11.0412 32.4188 -1.1831 -19.0220 10.1566 0.0155 -0.8044 -2.2108 0.0000 0.0000 0.0000 5.5478 10.3199 -95.8244 -3.1831 -10.9857 32.2317 0.3037 9.9852 1.2057 -0.0052 -0.4677 1.2851 -1.1030 -2.2418 32.7182 -1.0047 -1.5282 14.7541 -0.0058 -0.2453 -0.9633 1.9967 0.1339 -20.6036 -1.6920 0.0885 -2.7594 -0.9062 0.0972 2.6829 -0.0000 -0.0000 0.0000 48.8306 -64.9022 -116.6475 17.5311 -27.5526 -4.3301 -0.0000 -0.0000 145.7900 44.2188 -25.3790 -22.6396 -7.1250 0.0000 -0.0000 8.5085 -3.1941 -9.0677 -0.0000 -0.0000 0.0000 -76.0190 63.2674 -164.4355 -15.5127 24.8555 -3.4386 0.0000 -0.0000 -173.8360 -34.3957 -8.8857 6.0364 7.1250 -0.0000 -0.0000 -6.6199 -40.6206 -0.7184
-1.3516 17.0604 0.6661 124.7310 85.9730 189.9730 0.0000 0.0000 0.0000 -28.0864 -11.4668 -98.2619 3.2033 11.0171 32.3375 -1.1466 -18.7082 9.7307 0.0223 -0.9638 -2.6493 0.0000 0.0000 0.0000 5.6712 10.3754 -95.2033 -3.1559 -10.9433 32.0888 0.3048 9.9969 1.2350 -0.0037 -0.3914 1.0755 -1.2183 -2.1669 32.5539 -1.0364 -1.4928 14.6293 0.0128 -0.2355 -1.0361 2.0752 0.1420 -20.7500 -1.7646 0.0808 -2.5760 -0.9473 0.0879 2.7753 0.0000 0.0000 0.0000 47.4571 -65.2524 -114.8767 17.6102 -27.6551 -4.3668 -0.0000 -0.0000 145.4140 44.1790 -25.6870 -22.8412 -7.1250 0.0000 -0.0000 8.4087 -3.5457 -9.0078 0.0000 0.0000 0.0000 -75.4564 63.9438 -163.3946 -15.5798 24.9477 -3.4668 0.0000 -0.0000 -174.4060 -34.6236 -8.7323 5.9842 7.1250 -0.0000 -0.0000 -6.8190 -40.4604 -0.7673
-1.3632 17.0788 0.6667 123.7820 85.9562 188.4790 0.0000 0.0000 0.0000 -27.8878 -11.3222 -97.5757 3.1813 10.9829 32.2224 -1.1150 -18.4381 9.3929 0.0270 -1.0607 -2.9157 0.0000 0.0000 0.0000 5.5407 10.3355 -94.5490 -3.1367 -10.9131 31.9875 0.2920 9.8194 1.0691 -0.0026 -0.3264 0.8968 -1.2760 -2.1162 32.4266 -1.0282 -1.4700 14.4795 0.0472 -0.2302 -1.1540 2.1075 0.1167 -20.8436 -1.8244 0.0401 -2.4501 -0.9782 0.0633 2.8369 -0.0000 -0.0000 0.0000 46.0314 -65.6381 -112.8060 17.6838 -27.7504 -4.4010 -0.0000 -0.0000 144.5310 43.8621 -26.1765 -22.9748 -7.1250 0.0000 -0.0000 8.1068 -3.9998 -8.7379 -0.0000 -0.0000 0.0000 -74.5071 64.6257 -161.6484 -15.6870 25.0944 -3.5122 0.0000 -0.0000 -174.9730 -34.6832 -8.5729 5.8895 7.1250 -0.0000 -0.0000 -6.8673 -40.2754 -0.8042
-1.3765 17.0988 0.6657 123.6340 85.8989 187.8150 0.0000 0.0000 0.0000 -27.7588 -11.1960 -96.9538 3.1590 10.9481 32.1051 -1.0900 -18.2309 9.2030 0.0341 -1.1918 -3.2768 0.0000 0.0000 0.0000 5.0675 10.3791 -93.8175 -3.1144 -10.8779 31.8693 0.2591 9.3664 0.5985 -0.0014 -0.2396 0.6584 -1.2424 -2.1012 32.2426 -1.0137 -1.4650 14.3377 0.0413 -0.2299 -1.2414 2.1111 0.0995 -20.9703 -1.8593 0.0170 -2.3387 -0.9942 0.0495 2.8996 -0.0000 0.0000 0.0000 44.6394 -65.9414 -110.7636 17.7356 -27.8172 -4.4251 -0.0000 -0.0000 143.8220 43.3334 -26.2968 -22.6834 -7.1250 0.0000 -0.0000 7.7786 -3.9316 -8.3689 -0.0000 0.0000 0.0000 -73.5906 65.2336 -160.0501 -15.7139 25.1312 -3.5236 0.0000 -0.0000 -175.4060 -34.6670 -8.6064 5.9086 7.1250 -0.0000 -0.0000 -6.8539 -40.3140 -0.7961
